STARTFONT 2.1
COMMENT
COMMENT Converted from OpenType font "Fipps-Regular.otf" by "otf2bdf 3.0".
COMMENT
FONT -FreeType-Fipps-Medium-R-Normal--17-120-100-100-P-154-ISO10646-1
SIZE 12 100 100
FONTBOUNDINGBOX 31 36 -2 -7
STARTPROPERTIES 19
FOUNDRY "FreeType"
FAMILY_NAME "Fipps"
WEIGHT_NAME "Medium"
SLANT "R"
SETWIDTH_NAME "Normal"
ADD_STYLE_NAME ""
PIXEL_SIZE 17
POINT_SIZE 120
RESOLUTION_X 100
RESOLUTION_Y 100
SPACING "P"
AVERAGE_WIDTH 154
CHARSET_REGISTRY "ISO10646"
CHARSET_ENCODING "1"
FONT_ASCENT 29
FONT_DESCENT 12
COPYRIGHT "Copyright (c) 2007 by Stefanie Koerner (pheist). All rights reserved."
_OTF_FONTFILE "Fipps-Regular.otf"
_OTF_PSNAME "Fipps-Regular"
ENDPROPERTIES
CHARS 215
STARTCHAR 0020
ENCODING 32
SWIDTH 480 0
DWIDTH 8 0
BBX 0 0 0 0
BITMAP
ENDCHAR
STARTCHAR 0021
ENCODING 33
SWIDTH 480 0
DWIDTH 8 0
BBX 8 21 0 0
BITMAP
3C
3C
CF
CF
CF
CF
CF
CF
CF
CF
CF
CF
CF
FF
FF
CF
CF
FF
FF
3F
3F
ENDCHAR
STARTCHAR 0022
ENCODING 34
SWIDTH 780 0
DWIDTH 13 0
BBX 13 10 0 11
BITMAP
3FC0
3FC0
CCF8
CCF8
CCF8
CCF8
FFF8
FFF8
3FF8
3FF8
ENDCHAR
STARTCHAR 0023
ENCODING 35
SWIDTH 1020 0
DWIDTH 17 0
BBX 17 17 0 0
BITMAP
0FF800
0FF800
333E00
333E00
C00F80
C00F80
F33F80
F33F80
C00F80
C00F80
C00F80
F33F80
F33F80
3FFE00
3FFE00
0FF800
0FF800
ENDCHAR
STARTCHAR 0024
ENCODING 36
SWIDTH 1020 0
DWIDTH 17 0
BBX 17 25 0 -2
BITMAP
03C000
03C000
0CFE00
0CFE00
300F80
300F80
CCFF80
CCFF80
CCFF80
CCFF80
F03E00
F03E00
FCCF80
FCCF80
FCCF80
3CCF80
3CCF80
C03F80
C03F80
FCFF80
FCFF80
3FFE00
3FFE00
03C000
03C000
ENDCHAR
STARTCHAR 0025
ENCODING 37
SWIDTH 1020 0
DWIDTH 17 0
BBX 0 0 0 0
BITMAP
ENDCHAR
STARTCHAR 0026
ENCODING 38
SWIDTH 1020 0
DWIDTH 17 0
BBX 17 21 0 0
BITMAP
0FC000
0FC000
30F800
30F800
CFF800
CFF800
CF3E00
CF3E00
F00F80
F00F80
CF3F80
CF3F80
CF3E00
CF3E00
CF3E00
F0CF80
F0CF80
3FFF80
3FFF80
0FFF80
0FFF80
ENDCHAR
STARTCHAR 0027
ENCODING 39
SWIDTH 480 0
DWIDTH 8 0
BBX 8 10 0 11
BITMAP
3C
3C
CF
CF
CF
CF
FF
FF
3F
3F
ENDCHAR
STARTCHAR 0028
ENCODING 40
SWIDTH 600 0
DWIDTH 10 0
BBX 10 21 0 0
BITMAP
0F00
0F00
33C0
33C0
CFC0
CFC0
CF00
CF00
CF00
CF00
CF00
CF00
CF00
CF00
CF00
F3C0
F3C0
3FC0
3FC0
0FC0
0FC0
ENDCHAR
STARTCHAR 0029
ENCODING 41
SWIDTH 600 0
DWIDTH 10 0
BBX 10 21 0 0
BITMAP
3C00
3C00
CF00
CF00
F3C0
F3C0
33C0
33C0
33C0
33C0
33C0
33C0
33C0
33C0
33C0
CFC0
CFC0
FF00
FF00
3C00
3C00
ENDCHAR
STARTCHAR 002A
ENCODING 42
SWIDTH 1020 0
DWIDTH 17 0
BBX 17 17 0 0
BITMAP
03C000
03C000
3CFE00
3CFE00
CCCF80
CCCF80
F03F80
F03F80
CCCF80
CCCF80
CCCF80
FCFF80
FCFF80
3FFE00
3FFE00
03F800
03F800
ENDCHAR
STARTCHAR 002B
ENCODING 43
SWIDTH 780 0
DWIDTH 13 0
BBX 13 12 0 5
BITMAP
0F00
0F00
33C0
33C0
C0F8
C0F8
C1F8
F3F8
33C0
3FC0
0F00
0F00
ENDCHAR
STARTCHAR 002C
ENCODING 44
SWIDTH 480 0
DWIDTH 8 0
BBX 10 12 -2 -4
BITMAP
0F00
0F00
33C0
33C0
33C0
33C0
CFC0
CFC0
FF00
FF00
3C00
3C00
ENDCHAR
STARTCHAR 002D
ENCODING 45
SWIDTH 780 0
DWIDTH 13 0
BBX 13 9 0 6
BITMAP
3FC0
3FC0
C0F8
C0F8
C0F8
FFF8
FFF8
3FF8
3FF8
ENDCHAR
STARTCHAR 002E
ENCODING 46
SWIDTH 480 0
DWIDTH 8 0
BBX 8 8 0 0
BITMAP
3C
3C
CF
CF
FF
FF
3F
3F
ENDCHAR
STARTCHAR 002F
ENCODING 47
SWIDTH 900 0
DWIDTH 15 0
BBX 15 23 0 0
BITMAP
00F8
00F8
033E
033E
033E
033E
0CFE
0CFE
0CF8
0CF8
33F8
33F8
33C0
33C0
33C0
CFC0
CFC0
CF00
CF00
FF00
FF00
3F00
3F00
ENDCHAR
STARTCHAR 0030
ENCODING 48
SWIDTH 1020 0
DWIDTH 17 0
BBX 17 21 0 0
BITMAP
0FF800
0FF800
303E00
303E00
CFCF80
CFCF80
CFCF80
CFCF80
CCCF80
CCCF80
CFCF80
CFCF80
CFCF80
CFCF80
CFCF80
F03F80
F03F80
3FFF80
3FFF80
0FFE00
0FFE00
ENDCHAR
STARTCHAR 0031
ENCODING 49
SWIDTH 600 0
DWIDTH 10 0
BBX 10 21 0 0
BITMAP
0F00
0F00
33C0
33C0
C3C0
C3C0
F3C0
F3C0
33C0
33C0
33C0
33C0
33C0
33C0
33C0
33C0
33C0
3FC0
3FC0
0FC0
0FC0
ENDCHAR
STARTCHAR 0032
ENCODING 50
SWIDTH 1020 0
DWIDTH 17 0
BBX 17 21 0 0
BITMAP
3FF800
3FF800
C03E00
C03E00
FFCF80
FFCF80
0FCF80
0FCF80
0F3E00
0F3E00
30F800
30F800
30F800
CFFE00
CFFE00
C00F80
C00F80
FFFF80
FFFF80
3FFF80
3FFF80
ENDCHAR
STARTCHAR 0033
ENCODING 51
SWIDTH 1020 0
DWIDTH 17 0
BBX 17 21 0 0
BITMAP
3FF800
3FF800
C03E00
C03E00
FFCF80
FFCF80
3FCF80
3FCF80
0C3E00
0C3E00
0FCF80
0FCF80
0FCF80
3FCF80
3FCF80
C03F80
C03F80
FFFE00
FFFE00
3FF800
3FF800
ENDCHAR
STARTCHAR 0034
ENCODING 52
SWIDTH 1020 0
DWIDTH 17 0
BBX 17 21 0 0
BITMAP
3C3E00
3C3E00
CFCF80
CFCF80
CFCF80
CFCF80
CFCF80
CFCF80
CFCF80
C00F80
C00F80
FFCF80
FFCF80
3FCF80
3FCF80
00CF80
00CF80
00FF80
00FF80
003F80
003F80
ENDCHAR
STARTCHAR 0035
ENCODING 53
SWIDTH 1020 0
DWIDTH 17 0
BBX 17 21 0 0
BITMAP
FFFE00
FFFE00
C00F80
C00F80
CFFF80
CFFF80
CFF800
CFF800
C03E00
C03E00
FFCF80
FFCF80
3FCF80
3FCF80
3FCF80
C03F80
C03F80
FFFE00
FFFE00
3FF800
3FF800
ENDCHAR
STARTCHAR 0036
ENCODING 54
SWIDTH 1020 0
DWIDTH 17 0
BBX 17 21 0 0
BITMAP
0FF800
0FF800
303E00
303E00
CFFE00
CFFE00
CFC000
CFC000
C03E00
C03E00
CFCF80
CFCF80
CFCF80
CFCF80
CFCF80
F03F80
F03F80
3FFE00
3FFE00
0FF800
0FF800
ENDCHAR
STARTCHAR 0037
ENCODING 55
SWIDTH 900 0
DWIDTH 15 0
BBX 17 21 -2 0
BITMAP
3FFE00
3FFE00
C00F80
C00F80
FFCF80
FFCF80
033F80
033F80
0CFE00
0CFE00
0CF000
0CF000
0CF000
33F000
33F000
33C000
33C000
3FC000
3FC000
0FC000
0FC000
ENDCHAR
STARTCHAR 0038
ENCODING 56
SWIDTH 1020 0
DWIDTH 17 0
BBX 17 21 0 0
BITMAP
0FF800
0FF800
303E00
303E00
CFCF80
CFCF80
CFCF80
CFCF80
F03E00
F03E00
CFCF80
CFCF80
CFCF80
CFCF80
CFCF80
F03F80
F03F80
3FFE00
3FFE00
0FF800
0FF800
ENDCHAR
STARTCHAR 0039
ENCODING 57
SWIDTH 1020 0
DWIDTH 17 0
BBX 17 21 0 0
BITMAP
0FF800
0FF800
303E00
303E00
CFCF80
CFCF80
CFCF80
CFCF80
F00F80
F00F80
3FCF80
3FCF80
0FCF80
0FCF80
0FCF80
303F80
303F80
3FFE00
3FFE00
0FF800
0FF800
ENDCHAR
STARTCHAR 003A
ENCODING 58
SWIDTH 480 0
DWIDTH 8 0
BBX 8 13 0 2
BITMAP
3C
3C
CF
CF
CF
FF
FF
CF
CF
FF
FF
3F
3F
ENDCHAR
STARTCHAR 003B
ENCODING 59
SWIDTH 480 0
DWIDTH 8 0
BBX 10 16 -2 -4
BITMAP
0F00
0F00
33C0
33C0
3FC0
3FC0
33C0
33C0
33C0
33C0
CFC0
CFC0
FF00
FF00
3C00
3C00
ENDCHAR
STARTCHAR 003C
ENCODING 60
SWIDTH 780 0
DWIDTH 13 0
BBX 13 17 0 0
BITMAP
03C0
03C0
0CF8
0CF8
33F8
33F8
CFC0
CFC0
CFC0
F3C0
F3C0
3CF8
3CF8
0FF8
0FF8
03F8
03F8
ENDCHAR
STARTCHAR 003D
ENCODING 61
SWIDTH 780 0
DWIDTH 13 0
BBX 13 13 0 4
BITMAP
3FC0
3FC0
C0F8
C0F8
FFF8
FFF8
C0F8
C0F8
C0F8
FFF8
FFF8
3FF8
3FF8
ENDCHAR
STARTCHAR 003E
ENCODING 62
SWIDTH 780 0
DWIDTH 13 0
BBX 13 17 0 0
BITMAP
3C00
3C00
CF00
CF00
F3C0
F3C0
3CF8
3CF8
33F8
33F8
33F8
CFC0
CFC0
FF00
FF00
3C00
3C00
ENDCHAR
STARTCHAR 003F
ENCODING 63
SWIDTH 1140 0
DWIDTH 19 0
BBX 19 21 0 0
BITMAP
0FFE00
0FFE00
300F80
300F80
CFF9E0
CFF9E0
FFF9E0
FFF9E0
3FCFE0
3FCFE0
3FCFE0
033F80
033F80
03FE00
03FE00
033E00
033E00
03FE00
03FE00
00FE00
00FE00
ENDCHAR
STARTCHAR 0040
ENCODING 64
SWIDTH 1260 0
DWIDTH 21 0
BBX 21 21 0 -2
BITMAP
03FF80
03FF80
0C01E0
0C01E0
33FE78
33FE78
CFC078
CFC078
CF3E78
CF3E78
CFC078
CFC078
CFC078
F3FFF8
F3FFF8
3C0078
3C0078
0FFFF8
0FFFF8
03FFF8
03FFF8
ENDCHAR
STARTCHAR 0041
ENCODING 65
SWIDTH 1020 0
DWIDTH 17 0
BBX 17 21 0 0
BITMAP
0FF800
0FF800
303E00
303E00
CFCF80
CFCF80
CFCF80
CFCF80
C00F80
C00F80
CFCF80
CFCF80
CFCF80
CFCF80
CFCF80
CFCF80
CFCF80
FFFF80
FFFF80
3F3F80
3F3F80
ENDCHAR
STARTCHAR 0042
ENCODING 66
SWIDTH 1020 0
DWIDTH 17 0
BBX 17 21 0 0
BITMAP
3FF800
3FF800
C03E00
C03E00
CFCF80
CFCF80
CFCF80
CFCF80
C03F80
C03F80
CFCF80
CFCF80
CFCF80
CFCF80
CFCF80
C03F80
C03F80
FFFF80
FFFF80
3FFE00
3FFE00
ENDCHAR
STARTCHAR 0043
ENCODING 67
SWIDTH 1020 0
DWIDTH 17 0
BBX 17 21 0 0
BITMAP
0FFE00
0FFE00
300F80
300F80
CFFF80
CFFF80
CFFF80
CFFF80
CFC000
CFC000
CFC000
CFC000
CFC000
CFFE00
CFFE00
F00F80
F00F80
3FFF80
3FFF80
0FFF80
0FFF80
ENDCHAR
STARTCHAR 0044
ENCODING 68
SWIDTH 1020 0
DWIDTH 17 0
BBX 17 21 0 0
BITMAP
3FF800
3FF800
C03E00
C03E00
CFCF80
CFCF80
CFCF80
CFCF80
CFCF80
CFCF80
CFCF80
CFCF80
CFCF80
CFCF80
CFCF80
C03F80
C03F80
FFFF80
FFFF80
3FFE00
3FFE00
ENDCHAR
STARTCHAR 0045
ENCODING 69
SWIDTH 900 0
DWIDTH 15 0
BBX 15 21 0 0
BITMAP
3FF8
3FF8
C03E
C03E
CFFE
CFFE
CFF8
CFF8
C03E
C03E
CFFE
CFFE
CFF8
CFF8
CFF8
C03E
C03E
FFFE
FFFE
3FFE
3FFE
ENDCHAR
STARTCHAR 0046
ENCODING 70
SWIDTH 900 0
DWIDTH 15 0
BBX 15 21 0 0
BITMAP
3FF8
3FF8
C03E
C03E
CFFE
CFFE
CFF8
CFF8
C03E
C03E
CFFE
CFFE
CFFE
CFFE
CFFE
CF00
CF00
FF00
FF00
3F00
3F00
ENDCHAR
STARTCHAR 0047
ENCODING 71
SWIDTH 1020 0
DWIDTH 17 0
BBX 17 21 0 0
BITMAP
0FFE00
0FFE00
300F80
300F80
CFFF80
CFFF80
CFFF80
CFFF80
CF0F80
CF0F80
CFCF80
CFCF80
CFCF80
CFCF80
CFCF80
F03F80
F03F80
3FFF80
3FFF80
0FFE00
0FFE00
ENDCHAR
STARTCHAR 0048
ENCODING 72
SWIDTH 1020 0
DWIDTH 17 0
BBX 17 21 0 0
BITMAP
3C3E00
3C3E00
CFCF80
CFCF80
CFCF80
CFCF80
CFCF80
CFCF80
C00F80
C00F80
C00F80
CFCF80
CFCF80
CFCF80
CFCF80
CFCF80
CFCF80
FFFF80
FFFF80
3F3F80
3F3F80
ENDCHAR
STARTCHAR 0049
ENCODING 73
SWIDTH 480 0
DWIDTH 8 0
BBX 8 21 0 0
BITMAP
3C
3C
CF
CF
CF
CF
CF
CF
CF
CF
CF
CF
CF
CF
CF
CF
CF
FF
FF
3F
3F
ENDCHAR
STARTCHAR 004A
ENCODING 74
SWIDTH 1020 0
DWIDTH 17 0
BBX 17 21 0 0
BITMAP
003E00
003E00
00CF80
00CF80
00CF80
00CF80
00CF80
00CF80
3CCF80
3CCF80
CFCF80
CFCF80
CFCF80
CFCF80
CFCF80
F03F80
F03F80
3FFF80
3FFF80
0FFE00
0FFE00
ENDCHAR
STARTCHAR 004B
ENCODING 75
SWIDTH 1020 0
DWIDTH 17 0
BBX 17 21 0 0
BITMAP
3C3E00
3C3E00
CFCF80
CFCF80
CFCF80
CFCF80
CFCF80
CFCF80
C03F80
C03F80
CFCF80
CFCF80
CFCF80
CFCF80
CFCF80
CFCF80
CFCF80
FFFF80
FFFF80
3F3F80
3F3F80
ENDCHAR
STARTCHAR 004C
ENCODING 76
SWIDTH 900 0
DWIDTH 15 0
BBX 15 21 0 0
BITMAP
3C00
3C00
CF00
CF00
CF00
CF00
CF00
CF00
CF00
CF00
CF00
CF00
CF00
CFF8
CFF8
C03E
C03E
FFFE
FFFE
3FFE
3FFE
ENDCHAR
STARTCHAR 004D
ENCODING 77
SWIDTH 1260 0
DWIDTH 21 0
BBX 21 21 0 0
BITMAP
3C01E0
3C01E0
CF0E78
CF0E78
C3F878
C3F878
CCCE78
CCCE78
CF3E78
CF3E78
CFFE78
CFFE78
CFFE78
CFFE78
CFFE78
CF0E78
CF0E78
FF0FF8
FF0FF8
3F01F8
3F01F8
ENDCHAR
STARTCHAR 004E
ENCODING 78
SWIDTH 1020 0
DWIDTH 17 0
BBX 17 21 0 0
BITMAP
3C3E00
3C3E00
CFCF80
CFCF80
C3CF80
C3CF80
CCCF80
CCCF80
CF0F80
CF0F80
CF0F80
CFCF80
CFCF80
CFCF80
CFCF80
CFCF80
CFCF80
FFFF80
FFFF80
3F3F80
3F3F80
ENDCHAR
STARTCHAR 004F
ENCODING 79
SWIDTH 1020 0
DWIDTH 17 0
BBX 17 21 0 0
BITMAP
0FF800
0FF800
303E00
303E00
CFCF80
CFCF80
CFCF80
CFCF80
CFCF80
CFCF80
CFCF80
CFCF80
CFCF80
CFCF80
CFCF80
F03F80
F03F80
3FFF80
3FFF80
0FFE00
0FFE00
ENDCHAR
STARTCHAR 0050
ENCODING 80
SWIDTH 1020 0
DWIDTH 17 0
BBX 17 21 0 0
BITMAP
3FF800
3FF800
C03E00
C03E00
CFCF80
CFCF80
CFCF80
CFCF80
C03F80
C03F80
CFFE00
CFFE00
CFF800
CFF800
CFF800
CF0000
CF0000
FF0000
FF0000
3F0000
3F0000
ENDCHAR
STARTCHAR 0051
ENCODING 81
SWIDTH 1020 0
DWIDTH 17 0
BBX 17 23 0 -2
BITMAP
0FF800
0FF800
303E00
303E00
CFCF80
CFCF80
CFCF80
CFCF80
CFCF80
CFCF80
CFCF80
CFCF80
CFCF80
CFCF80
CFCF80
F03E00
F03E00
3FCF80
3FCF80
0FFF80
0FFF80
003F80
003F80
ENDCHAR
STARTCHAR 0052
ENCODING 82
SWIDTH 1020 0
DWIDTH 17 0
BBX 17 21 0 0
BITMAP
3FF800
3FF800
C03E00
C03E00
CFCF80
CFCF80
CFCF80
CFCF80
C03E00
C03E00
CFCF80
CFCF80
CFCF80
CFCF80
CFCF80
CFCF80
CFCF80
FFFF80
FFFF80
3F3F80
3F3F80
ENDCHAR
STARTCHAR 0053
ENCODING 83
SWIDTH 1020 0
DWIDTH 17 0
BBX 17 21 0 0
BITMAP
0FFE00
0FFE00
300F80
300F80
CFFF80
CFFF80
CFFF80
CFFF80
F03E00
F03E00
3FCF80
3FCF80
3FCF80
3FCF80
3FCF80
C03F80
C03F80
FFFF80
FFFF80
3FFE00
3FFE00
ENDCHAR
STARTCHAR 0054
ENCODING 84
SWIDTH 1020 0
DWIDTH 17 0
BBX 17 21 0 0
BITMAP
3FFE00
3FFE00
C00F80
C00F80
FCFF80
FCFF80
3CFF80
3CFF80
0CF800
0CF800
0CF800
0CF800
0CF800
0CF800
0CF800
0CF800
0CF800
0FF800
0FF800
03F800
03F800
ENDCHAR
STARTCHAR 0055
ENCODING 85
SWIDTH 1020 0
DWIDTH 17 0
BBX 17 21 0 0
BITMAP
3C3E00
3C3E00
CFCF80
CFCF80
CFCF80
CFCF80
CFCF80
CFCF80
CFCF80
CFCF80
CFCF80
CFCF80
CFCF80
CFCF80
CFCF80
F03F80
F03F80
3FFF80
3FFF80
0FFE00
0FFE00
ENDCHAR
STARTCHAR 0056
ENCODING 86
SWIDTH 1140 0
DWIDTH 19 0
BBX 19 21 0 0
BITMAP
3C0F80
3C0F80
CF39E0
CF39E0
CF39E0
CF39E0
CFF9E0
CFF9E0
F3CFE0
F3CFE0
33CF80
33CF80
33CF80
33CF80
33CF80
3C3F80
3C3F80
0FFE00
0FFE00
03F800
03F800
ENDCHAR
STARTCHAR 0057
ENCODING 87
SWIDTH 1260 0
DWIDTH 21 0
BBX 21 21 0 0
BITMAP
3C01E0
3C01E0
CF0E78
CF0E78
CF0E78
CF0E78
CF0E78
CF0E78
CFFE78
CFFE78
CF3E78
CF3E78
CCCE78
CCCE78
CCCE78
F3F9F8
F3F9F8
3FFFF8
3FFFF8
0FCFE0
0FCFE0
ENDCHAR
STARTCHAR 0058
ENCODING 88
SWIDTH 1140 0
DWIDTH 19 0
BBX 19 21 0 0
BITMAP
3C0F80
3C0F80
CF39E0
CF39E0
CFF9E0
CFF9E0
F3CFE0
F3CFE0
3C3F80
3C3F80
33CF80
33CF80
CFF9E0
CFF9E0
CFF9E0
CFF9E0
CFF9E0
FF3FE0
FF3FE0
3C0FE0
3C0FE0
ENDCHAR
STARTCHAR 0059
ENCODING 89
SWIDTH 1260 0
DWIDTH 21 0
BBX 21 21 0 0
BITMAP
3C01E0
3C01E0
CF0E78
CF0E78
CFCE78
CFCE78
F3F9F8
F3F9F8
3C0FE0
3C0FE0
0F3F80
0F3F80
033E00
033E00
033E00
033E00
033E00
03FE00
03FE00
00FE00
00FE00
ENDCHAR
STARTCHAR 005A
ENCODING 90
SWIDTH 1020 0
DWIDTH 17 0
BBX 17 21 0 0
BITMAP
3FFE00
3FFE00
C00F80
C00F80
FFCF80
FFCF80
0F3F80
0F3F80
0CFE00
0CFE00
13FE00
33F800
3FF800
CFFE00
CFFE00
C00F80
C00F80
FFFF80
FFFF80
3FFF80
3FFF80
ENDCHAR
STARTCHAR 005B
ENCODING 91
SWIDTH 600 0
DWIDTH 10 0
BBX 10 21 0 0
BITMAP
FF00
FF00
C3C0
C3C0
CFC0
CFC0
CF00
CF00
CF00
CF00
CF00
CF00
CF00
CF00
CF00
C3C0
C3C0
FFC0
FFC0
3FC0
3FC0
ENDCHAR
STARTCHAR 005C
ENCODING 92
SWIDTH 900 0
DWIDTH 15 0
BBX 15 23 0 0
BITMAP
3C00
3C00
CF00
CF00
CF00
CF00
F3C0
F3C0
33C0
33C0
3CF8
3CF8
0CF8
0CF8
0CF8
0F3E
0F3E
033E
033E
03FE
03FE
00FE
00FE
ENDCHAR
STARTCHAR 005D
ENCODING 93
SWIDTH 600 0
DWIDTH 10 0
BBX 10 21 0 0
BITMAP
3F00
3F00
C3C0
C3C0
F3C0
F3C0
33C0
33C0
33C0
33C0
33C0
33C0
33C0
33C0
33C0
C3C0
C3C0
FFC0
FFC0
3FC0
3FC0
ENDCHAR
STARTCHAR 005E
ENCODING 94
SWIDTH 780 0
DWIDTH 13 0
BBX 13 10 0 11
BITMAP
0F00
0F00
33C0
33C0
CCF8
CCF8
FFF8
FFF8
3FF8
3FF8
ENDCHAR
STARTCHAR 005F
ENCODING 95
SWIDTH 900 0
DWIDTH 15 0
BBX 15 8 0 0
BITMAP
3FF8
3FF8
C03E
C03E
FFFE
FFFE
3FFE
3FFE
ENDCHAR
STARTCHAR 0060
ENCODING 96
SWIDTH 600 0
DWIDTH 10 0
BBX 10 10 0 11
BITMAP
3C00
3C00
CF00
CF00
F3C0
F3C0
3FC0
3FC0
0FC0
0FC0
ENDCHAR
STARTCHAR 0061
ENCODING 97
SWIDTH 1020 0
DWIDTH 17 0
BBX 17 17 0 0
BITMAP
0FFE00
0FFE00
303F80
303F80
0FCF80
0FCF80
300F80
300F80
300F80
CFCF80
CFCF80
F00F80
F00F80
3FFF80
3FFF80
0FFF80
0FFF80
ENDCHAR
STARTCHAR 0062
ENCODING 98
SWIDTH 1020 0
DWIDTH 17 0
BBX 17 21 0 0
BITMAP
3C0000
3C0000
CFC000
CFC000
CFF800
CFF800
C03E00
C03E00
CFCF80
CFCF80
CFCF80
CFCF80
CFCF80
CFCF80
CFCF80
C03F80
C03F80
FFFE00
FFFE00
3FF800
3FF800
ENDCHAR
STARTCHAR 0063
ENCODING 99
SWIDTH 900 0
DWIDTH 15 0
BBX 15 17 0 0
BITMAP
0FF8
0FF8
303E
303E
CFFE
CFFE
CFC0
CFC0
CFC0
CFF8
CFF8
F03E
F03E
3FFE
3FFE
0FFE
0FFE
ENDCHAR
STARTCHAR 0064
ENCODING 100
SWIDTH 1020 0
DWIDTH 17 0
BBX 17 21 0 0
BITMAP
003E00
003E00
00CF80
00CF80
0FCF80
0FCF80
300F80
300F80
CFCF80
CFCF80
CFCF80
CFCF80
CFCF80
CFCF80
CFCF80
F00F80
F00F80
3FFF80
3FFF80
0FFF80
0FFF80
ENDCHAR
STARTCHAR 0065
ENCODING 101
SWIDTH 1020 0
DWIDTH 17 0
BBX 17 17 0 0
BITMAP
0FF800
0FF800
303E00
303E00
CFCF80
CFCF80
C00F80
C00F80
C00F80
CFFF80
CFFF80
F00F80
F00F80
3FFF80
3FFF80
0FFF80
0FFF80
ENDCHAR
STARTCHAR 0066
ENCODING 102
SWIDTH 900 0
DWIDTH 15 0
BBX 15 21 0 0
BITMAP
03F8
03F8
0C3E
0C3E
33FE
33FE
C03E
C03E
F3FE
F3FE
33FE
33FE
33C0
33C0
33C0
33C0
33C0
3FC0
3FC0
0FC0
0FC0
ENDCHAR
STARTCHAR 0067
ENCODING 103
SWIDTH 1020 0
DWIDTH 17 0
BBX 17 24 0 -7
BITMAP
0FFE00
0FFE00
300F80
300F80
CFCF80
CFCF80
CFCF80
CFCF80
CFCF80
CFCF80
CFCF80
F00F80
F00F80
3FCF80
3FCF80
3FCF80
3FCF80
C03F80
C03F80
C03F80
FFFE00
FFFE00
3FF800
3FF800
ENDCHAR
STARTCHAR 0068
ENCODING 104
SWIDTH 1020 0
DWIDTH 17 0
BBX 17 21 0 0
BITMAP
3C0000
3C0000
CF0000
CF0000
CFF800
CFF800
C03E00
C03E00
CFCF80
CFCF80
CFCF80
CFCF80
CFCF80
CFCF80
CFCF80
CFCF80
CFCF80
FFFF80
FFFF80
3C3F80
3C3F80
ENDCHAR
STARTCHAR 0069
ENCODING 105
SWIDTH 480 0
DWIDTH 8 0
BBX 8 21 0 0
BITMAP
3C
3C
CF
CF
FF
FF
CF
CF
CF
CF
CF
CF
CF
CF
CF
CF
CF
FF
FF
3F
3F
ENDCHAR
STARTCHAR 006A
ENCODING 106
SWIDTH 480 0
DWIDTH 8 0
BBX 10 28 -2 -7
BITMAP
0F00
0F00
33C0
33C0
3FC0
3FC0
33C0
33C0
33C0
33C0
33C0
33C0
33C0
33C0
33C0
33C0
33C0
33C0
33C0
33C0
33C0
CFC0
CFC0
CFC0
FF00
FF00
3C00
3C00
ENDCHAR
STARTCHAR 006B
ENCODING 107
SWIDTH 1020 0
DWIDTH 17 0
BBX 17 21 0 0
BITMAP
3C0000
3C0000
CF3E00
CF3E00
CFCF80
CFCF80
CF3F80
CF3F80
C0FE00
C0FE00
CF3E00
CF3E00
CFCF80
CFCF80
CFCF80
CFCF80
CFCF80
FFFF80
FFFF80
3C3F80
3C3F80
ENDCHAR
STARTCHAR 006C
ENCODING 108
SWIDTH 480 0
DWIDTH 8 0
BBX 8 21 0 0
BITMAP
3C
3C
CF
CF
CF
CF
CF
CF
CF
CF
CF
CF
CF
CF
CF
CF
CF
FF
FF
3F
3F
ENDCHAR
STARTCHAR 006D
ENCODING 109
SWIDTH 1260 0
DWIDTH 21 0
BBX 21 17 0 0
BITMAP
3FFF80
3FFF80
C0C1E0
C0C1E0
CF3E78
CF3E78
CF3E78
CF3E78
CF3E78
CF3E78
CF3E78
CF3E78
CF3E78
FFFFF8
FFFFF8
3CF9F8
3CF9F8
ENDCHAR
STARTCHAR 006E
ENCODING 110
SWIDTH 1020 0
DWIDTH 17 0
BBX 17 17 0 0
BITMAP
3FF800
3FF800
C03E00
C03E00
CFCF80
CFCF80
CFCF80
CFCF80
CFCF80
CFCF80
CFCF80
CFCF80
CFCF80
FFFF80
FFFF80
3C3F80
3C3F80
ENDCHAR
STARTCHAR 006F
ENCODING 111
SWIDTH 1020 0
DWIDTH 17 0
BBX 17 17 0 0
BITMAP
0FF800
0FF800
303E00
303E00
CFCF80
CFCF80
CFCF80
CFCF80
CFCF80
CFCF80
CFCF80
F03F80
F03F80
3FFE00
3FFE00
0FF800
0FF800
ENDCHAR
STARTCHAR 0070
ENCODING 112
SWIDTH 1020 0
DWIDTH 17 0
BBX 17 24 0 -7
BITMAP
3FF800
3FF800
C03E00
C03E00
CFCF80
CFCF80
CFCF80
CFCF80
CFCF80
CFCF80
CFCF80
C03F80
C03F80
CFFE00
CFFE00
CFC000
CFC000
CF0000
CF0000
CF0000
FF0000
FF0000
3F0000
3F0000
ENDCHAR
STARTCHAR 0071
ENCODING 113
SWIDTH 1020 0
DWIDTH 17 0
BBX 17 24 0 -7
BITMAP
0FFE00
0FFE00
300F80
300F80
CFCF80
CFCF80
CFCF80
CFCF80
CFCF80
CFCF80
CFCF80
F00F80
F00F80
3FCF80
3FCF80
0FCF80
0FCF80
00CF80
00CF80
00CF80
00FF80
00FF80
003F80
003F80
ENDCHAR
STARTCHAR 0072
ENCODING 114
SWIDTH 780 0
DWIDTH 13 0
BBX 13 17 0 0
BITMAP
0FC0
0FC0
30F8
30F8
CFF8
CFF8
CF00
CF00
CF00
CF00
CF00
CF00
CF00
FF00
FF00
3F00
3F00
ENDCHAR
STARTCHAR 0073
ENCODING 115
SWIDTH 1020 0
DWIDTH 17 0
BBX 17 17 0 0
BITMAP
0FFE00
0FFE00
300F80
300F80
CFFF80
CFFF80
F03E00
F03E00
F03E00
3FCF80
3FCF80
C03F80
C03F80
FFFE00
FFFE00
3FF800
3FF800
ENDCHAR
STARTCHAR 0074
ENCODING 116
SWIDTH 780 0
DWIDTH 13 0
BBX 13 21 0 0
BITMAP
0F00
0F00
33C0
33C0
33C0
33C0
C0F8
C0F8
F3F8
F3F8
33C0
33C0
33C0
33C0
33C0
3CF8
3CF8
0FF8
0FF8
03F8
03F8
ENDCHAR
STARTCHAR 0075
ENCODING 117
SWIDTH 1020 0
DWIDTH 17 0
BBX 17 17 0 0
BITMAP
3C3E00
3C3E00
CFCF80
CFCF80
CFCF80
CFCF80
CFCF80
CFCF80
CFCF80
CFCF80
CFCF80
F03F80
F03F80
3FFF80
3FFF80
0FFE00
0FFE00
ENDCHAR
STARTCHAR 0076
ENCODING 118
SWIDTH 1020 0
DWIDTH 17 0
BBX 17 17 0 0
BITMAP
3C3E00
3C3E00
CFCF80
CFCF80
CFCF80
CFCF80
CFCF80
CFCF80
CFCF80
F33F80
F33F80
3CFE00
3CFE00
0FF800
0FF800
03C000
03C000
ENDCHAR
STARTCHAR 0077
ENCODING 119
SWIDTH 1260 0
DWIDTH 21 0
BBX 21 17 0 0
BITMAP
3C01E0
3C01E0
CFFE78
CFFE78
CF3E78
CF3E78
CF3E78
CF3E78
CF3E78
CCCE78
CCCE78
F3F9F8
F3F9F8
3FFFE0
3FFFE0
0F0F80
0F0F80
ENDCHAR
STARTCHAR 0078
ENCODING 120
SWIDTH 1020 0
DWIDTH 17 0
BBX 17 17 0 0
BITMAP
3C3E00
3C3E00
CFCF80
CFCF80
F33F80
F33F80
3CFE00
3CFE00
333E00
333E00
333E00
CFCF80
CFCF80
FFFF80
FFFF80
3C3E00
3C3E00
ENDCHAR
STARTCHAR 0079
ENCODING 121
SWIDTH 1020 0
DWIDTH 17 0
BBX 17 24 0 -7
BITMAP
3C3E00
3C3E00
CFCF80
CFCF80
CFCF80
CFCF80
CFCF80
CFCF80
CFCF80
CFCF80
CFCF80
F00F80
F00F80
3FCF80
3FCF80
0FCF80
0FCF80
303F80
303F80
303F80
3FFE00
3FFE00
0FF800
0FF800
ENDCHAR
STARTCHAR 007A
ENCODING 122
SWIDTH 1020 0
DWIDTH 17 0
BBX 17 17 0 0
BITMAP
3FFE00
3FFE00
C00F80
C00F80
FFCF80
FFCF80
303E00
303E00
303E00
CFFE00
CFFE00
C00F80
C00F80
FFFF80
FFFF80
3FFF80
3FFF80
ENDCHAR
STARTCHAR 007B
ENCODING 123
SWIDTH 780 0
DWIDTH 13 0
BBX 13 21 0 0
BITMAP
03C0
03C0
0CF8
0CF8
33F8
33F8
33C0
33C0
CFC0
CFC0
F3C0
F3C0
F3C0
33C0
33C0
3CF8
3CF8
0FF8
0FF8
03F8
03F8
ENDCHAR
STARTCHAR 007C
ENCODING 124
SWIDTH 480 0
DWIDTH 8 0
BBX 8 23 0 0
BITMAP
3C
3C
CF
CF
CF
CF
CF
CF
CF
CF
CF
CF
CF
CF
CF
CF
CF
CF
CF
FF
FF
3F
3F
ENDCHAR
STARTCHAR 007D
ENCODING 125
SWIDTH 780 0
DWIDTH 13 0
BBX 13 21 0 0
BITMAP
3C00
3C00
CF00
CF00
F3C0
F3C0
33C0
33C0
3CF8
3CF8
33F8
33F8
33C0
33C0
33C0
CFC0
CFC0
FF00
FF00
3C00
3C00
ENDCHAR
STARTCHAR 007E
ENCODING 126
SWIDTH 900 0
DWIDTH 15 0
BBX 15 10 0 11
BITMAP
0FF8
0FF8
333E
333E
CCFE
CCFE
FFF8
FFF8
3FC0
3FC0
ENDCHAR
STARTCHAR 007F
ENCODING 127
SWIDTH 480 0
DWIDTH 8 0
BBX 0 0 0 0
BITMAP
ENDCHAR
STARTCHAR 00A0
ENCODING 160
SWIDTH 480 0
DWIDTH 8 0
BBX 0 0 0 0
BITMAP
ENDCHAR
STARTCHAR 00A1
ENCODING 161
SWIDTH 480 0
DWIDTH 8 0
BBX 8 21 0 0
BITMAP
3C
3C
CF
CF
FF
FF
CF
CF
CF
CF
CF
CF
CF
CF
CF
CF
CF
FF
FF
3F
3F
ENDCHAR
STARTCHAR 00A6
ENCODING 166
SWIDTH 480 0
DWIDTH 8 0
BBX 8 21 0 0
BITMAP
3C
3C
CF
CF
CF
CF
CF
CF
FF
FF
CF
CF
CF
CF
CF
CF
CF
FF
FF
3F
3F
ENDCHAR
STARTCHAR 00A8
ENCODING 168
SWIDTH 780 0
DWIDTH 13 0
BBX 13 8 0 13
BITMAP
3FC0
3FC0
CCF8
CCF8
FFF8
FFF8
3FF8
3FF8
ENDCHAR
STARTCHAR 00A9
ENCODING 169
SWIDTH 780 0
DWIDTH 13 0
BBX 13 14 0 7
BITMAP
0FC0
0FC0
30F8
30F8
CFF8
CFF8
CFC0
CFC0
F0F8
F0F8
3FF8
3FF8
0FF8
0FF8
ENDCHAR
STARTCHAR 00AB
ENCODING 171
SWIDTH 900 0
DWIDTH 15 0
BBX 15 12 0 0
BITMAP
0FF8
0FF8
333E
333E
CCFE
CCFE
F33E
F33E
3FFE
3FFE
0FFE
0FFE
ENDCHAR
STARTCHAR 00AC
ENCODING 172
SWIDTH 780 0
DWIDTH 13 0
BBX 13 11 0 4
BITMAP
3FC0
3FC0
C0F8
C0F8
C0F8
FCF8
FCF8
3FF8
3FF8
03F8
03F8
ENDCHAR
STARTCHAR 00AE
ENCODING 174
SWIDTH 780 0
DWIDTH 13 0
BBX 13 15 0 6
BITMAP
3FC0
3FC0
C0F8
C0F8
CCF8
CCF8
C3F8
C3F8
CCF8
CCF8
CCF8
FFF8
FFF8
3FF8
3FF8
ENDCHAR
STARTCHAR 00AF
ENCODING 175
SWIDTH 780 0
DWIDTH 13 0
BBX 13 8 0 13
BITMAP
3FC0
3FC0
C0F8
C0F8
FFF8
FFF8
3FF8
3FF8
ENDCHAR
STARTCHAR 00B0
ENCODING 176
SWIDTH 780 0
DWIDTH 13 0
BBX 13 12 0 9
BITMAP
3FC0
3FC0
C0F8
C0F8
CCF8
CCF8
C0F8
C0F8
FFF8
FFF8
3FC0
3FC0
ENDCHAR
STARTCHAR 00B1
ENCODING 177
SWIDTH 780 0
DWIDTH 13 0
BBX 13 17 0 0
BITMAP
0F00
0F00
33C0
33C0
C0F8
C0F8
C0F8
F3F8
F3F8
FFF8
FFF8
C0F8
C0F8
FFF8
FFF8
3FF8
3FF8
ENDCHAR
STARTCHAR 00B2
ENCODING 178
SWIDTH 600 0
DWIDTH 10 0
BBX 12 16 -2 9
BITMAP
3F00
3F00
C3C0
C3C0
FCF0
FCF0
33F0
33F0
CFC0
CFC0
C0F0
C0F0
FFF0
FFF0
3FF0
3FF0
ENDCHAR
STARTCHAR 00B3
ENCODING 179
SWIDTH 600 0
DWIDTH 10 0
BBX 12 16 -2 9
BITMAP
3F00
3F00
C3C0
C3C0
FCF0
FCF0
33F0
33F0
3CF0
3CF0
C3F0
C3F0
FFC0
FFC0
3F00
3F00
ENDCHAR
STARTCHAR 00B4
ENCODING 180
SWIDTH 600 0
DWIDTH 10 0
BBX 10 10 0 11
BITMAP
0F00
0F00
33C0
33C0
CFC0
CFC0
FF00
FF00
3C00
3C00
ENDCHAR
STARTCHAR 00B6
ENCODING 182
SWIDTH 1020 0
DWIDTH 17 0
BBX 17 21 0 0
BITMAP
0FFE00
0FFE00
300F80
300F80
CCCF80
CCCF80
CCCF80
CCCF80
CCCF80
CCCF80
C8CF80
F00F80
300F80
3CCF80
3CCF80
0CCF80
0CCF80
0FFF80
0FFF80
03FF80
03FF80
ENDCHAR
STARTCHAR 00B7
ENCODING 183
SWIDTH 480 0
DWIDTH 8 0
BBX 8 9 0 6
BITMAP
3C
3C
CF
CF
CF
FF
FF
3F
3F
ENDCHAR
STARTCHAR 00B8
ENCODING 184
SWIDTH 1020 0
DWIDTH 17 0
BBX 10 10 0 -4
BITMAP
0F00
0F00
33C0
33C0
CFC0
CFC0
FF00
FF00
3C00
3C00
ENDCHAR
STARTCHAR 00B9
ENCODING 185
SWIDTH 480 0
DWIDTH 8 0
BBX 10 16 -2 9
BITMAP
0F00
0F00
33C0
33C0
C3C0
C3C0
F3C0
F3C0
33C0
33C0
33C0
33C0
3FC0
3FC0
0FC0
0FC0
ENDCHAR
STARTCHAR 00BB
ENCODING 187
SWIDTH 900 0
DWIDTH 15 0
BBX 15 12 0 0
BITMAP
3FC0
3FC0
CCF8
CCF8
F33E
F33E
CCFE
CCFE
FFF8
FFF8
3FC0
3FC0
ENDCHAR
STARTCHAR 00BC
ENCODING 188
SWIDTH 1620 0
DWIDTH 27 0
BBX 27 25 0 0
BITMAP
0F000000
0F000000
33CF8000
33CF8000
C3F98000
C3F98000
F3F98000
F3F98000
33CFE780
33CFE780
33CE79E0
33CE79E0
3F3E79E0
3F3E79E0
3F3E01E0
0F3E01E0
0F3E01E0
0CFFF9E0
0CFFF9E0
0CF9F9E0
0CF9F9E0
0FF81FE0
0FF81FE0
03F807E0
03F807E0
ENDCHAR
STARTCHAR 00BD
ENCODING 189
SWIDTH 1500 0
DWIDTH 25 0
BBX 25 25 0 0
BITMAP
0F000000
0F000000
33CF8000
33CF8000
C3F9E000
C3F9E000
F3F9E000
F3F9E000
33CFF800
33CFF800
33CE1E00
33CE1E00
3F3FE780
3F3FE780
0F3F9F80
0F3F9F80
0F3F9F80
0CFE7E00
0CFE7E00
0CFE0780
0CFE0780
0FFFFF80
0FFFFF80
03F9FF80
03F9FF80
ENDCHAR
STARTCHAR 00BE
ENCODING 190
SWIDTH 1740 0
DWIDTH 29 0
BBX 29 25 0 0
BITMAP
3F000000
3F000000
C3C1E000
C3C1E000
FCFE6000
FCFE6000
33FE6000
33FE6000
3CF9F9E0
3CF9F9E0
C3F99E78
C3F99E78
FFCF9E78
FFCF9E78
3FCF9E78
3FCF8078
3FCF8078
033FFE78
033FFE78
033E7E78
033E7E78
03FE07F8
03FE07F8
00FE01F8
00FE01F8
ENDCHAR
STARTCHAR 00BF
ENCODING 191
SWIDTH 1140 0
DWIDTH 19 0
BBX 19 21 0 0
BITMAP
03C000
03C000
0CF800
0CF800
0FF800
0FF800
0CF800
0CF800
33C000
33C000
CFCF80
CFCF80
CFCF80
CFF9E0
CFF9E0
F00FE0
F00FE0
3FFF80
3FFF80
0FFE00
0FFE00
ENDCHAR
STARTCHAR 00C0
ENCODING 192
SWIDTH 1020 0
DWIDTH 17 0
BBX 17 27 0 0
BITMAP
0F0000
0F0000
33C000
33C000
3CF800
3CF800
0FF800
0FF800
303E00
303E00
CFCF80
CFCF80
CFCF80
CFCF80
C00F80
C00F80
CFCF80
CFCF80
CFCF80
CFCF80
CFCF80
CFCF80
CFCF80
FFFF80
FFFF80
3F3F80
3F3F80
ENDCHAR
STARTCHAR 00C1
ENCODING 193
SWIDTH 1020 0
DWIDTH 17 0
BBX 17 27 0 0
BITMAP
00F800
00F800
033E00
033E00
0CFE00
0CFE00
0FF800
0FF800
303E00
303E00
CFCF80
CFCF80
CFCF80
CFCF80
C00F80
C00F80
CFCF80
CFCF80
CFCF80
CFCF80
CFCF80
CFCF80
CFCF80
FFFF80
FFFF80
3F3F80
3F3F80
ENDCHAR
STARTCHAR 00C2
ENCODING 194
SWIDTH 1020 0
DWIDTH 17 0
BBX 17 27 0 0
BITMAP
03C000
03C000
0CF800
0CF800
333E00
333E00
3FFE00
3FFE00
303E00
303E00
CFCF80
CFCF80
CFCF80
CFCF80
C00F80
C00F80
CFCF80
CFCF80
CFCF80
CFCF80
CFCF80
CFCF80
CFCF80
FFFF80
FFFF80
3F3F80
3F3F80
ENDCHAR
STARTCHAR 00C3
ENCODING 195
SWIDTH 1020 0
DWIDTH 17 0
BBX 17 27 0 0
BITMAP
03FE00
03FE00
0CCF80
0CCF80
333F80
333F80
3FFE00
3FFE00
303E00
303E00
CFCF80
CFCF80
CFCF80
CFCF80
C00F80
C00F80
CFCF80
CFCF80
CFCF80
CFCF80
CFCF80
CFCF80
CFCF80
FFFF80
FFFF80
3F3F80
3F3F80
ENDCHAR
STARTCHAR 00C4
ENCODING 196
SWIDTH 1020 0
DWIDTH 17 0
BBX 17 25 0 0
BITMAP
0FF800
0FF800
333E00
333E00
3FFE00
3FFE00
303E00
303E00
CFCF80
CFCF80
CFCF80
CFCF80
C00F80
C00F80
CFCF80
CFCF80
CFCF80
CFCF80
CFCF80
CFCF80
CFCF80
FFFF80
FFFF80
3F3F80
3F3F80
ENDCHAR
STARTCHAR 00C5
ENCODING 197
SWIDTH 1020 0
DWIDTH 17 0
BBX 17 29 0 0
BITMAP
03C000
03C000
0CF800
0CF800
333E00
333E00
3CFE00
3CFE00
0FF800
0FF800
303E00
303E00
CFCF80
CFCF80
CFCF80
CFCF80
C00F80
C00F80
CFCF80
CFCF80
CFCF80
CFCF80
CFCF80
CFCF80
CFCF80
FFFF80
FFFF80
3F3F80
3F3F80
ENDCHAR
STARTCHAR 00C6
ENCODING 198
SWIDTH 1380 0
DWIDTH 23 0
BBX 23 21 0 0
BITMAP
0FCFF8
0FCFF8
30381E
30381E
CFCFFE
CFCFFE
CFCFFE
CFCFFE
C0001E
C0001E
CFCFFE
CFCFFE
CFCFFE
CFCFFE
CFCFFE
CFC01E
CFC01E
FFFFFE
FFFFFE
3F3FFE
3F3FFE
ENDCHAR
STARTCHAR 00C7
ENCODING 199
SWIDTH 1020 0
DWIDTH 17 0
BBX 17 25 0 -4
BITMAP
0FFE00
0FFE00
300F80
300F80
CFFF80
CFFF80
CFFF80
CFFF80
CFC000
CFC000
CFC000
CFC000
CFC000
CFFE00
CFFE00
F00F80
F00F80
3F3F80
3F3F80
0CFF80
0CFF80
0FF800
0FF800
03C000
03C000
ENDCHAR
STARTCHAR 00C8
ENCODING 200
SWIDTH 900 0
DWIDTH 15 0
BBX 15 27 0 0
BITMAP
0F00
0F00
33C0
33C0
3CF8
3CF8
3FF8
3FF8
C03E
C03E
CFFE
CFFE
CFF8
CFF8
C03E
C03E
CFFE
CFFE
CFF8
CFF8
CFF8
C03E
C03E
FFFE
FFFE
3FFE
3FFE
ENDCHAR
STARTCHAR 00C9
ENCODING 201
SWIDTH 900 0
DWIDTH 15 0
BBX 15 27 0 0
BITMAP
00F8
00F8
033E
033E
0CFE
0CFE
3FF8
3FF8
C03E
C03E
CFFE
CFFE
CFF8
CFF8
C03E
C03E
CFFE
CFFE
CFF8
CFF8
CFF8
C03E
C03E
FFFE
FFFE
3FFE
3FFE
ENDCHAR
STARTCHAR 00CA
ENCODING 202
SWIDTH 900 0
DWIDTH 15 0
BBX 15 27 0 0
BITMAP
03C0
03C0
0CF8
0CF8
333E
333E
3FFE
3FFE
C03E
C03E
CFFE
CFFE
CFF8
CFF8
C03E
C03E
CFFE
CFFE
CFF8
CFF8
CFF8
C03E
C03E
FFFE
FFFE
3FFE
3FFE
ENDCHAR
STARTCHAR 00CB
ENCODING 203
SWIDTH 900 0
DWIDTH 15 0
BBX 15 25 0 0
BITMAP
0FF8
0FF8
333E
333E
3FFE
3FFE
C03E
C03E
CFFE
CFFE
CFF8
CFF8
C03E
C03E
CFFE
CFFE
CFF8
CFF8
CFF8
C03E
C03E
FFFE
FFFE
3FFE
3FFE
ENDCHAR
STARTCHAR 00CC
ENCODING 204
SWIDTH 480 0
DWIDTH 8 0
BBX 10 27 -2 0
BITMAP
3C00
3C00
CF00
CF00
F3C0
F3C0
3FC0
3FC0
33C0
33C0
33C0
33C0
33C0
33C0
33C0
33C0
33C0
33C0
33C0
33C0
33C0
33C0
33C0
3FC0
3FC0
0FC0
0FC0
ENDCHAR
STARTCHAR 00CD
ENCODING 205
SWIDTH 480 0
DWIDTH 8 0
BBX 10 27 0 0
BITMAP
0F00
0F00
33C0
33C0
CFC0
CFC0
FF00
FF00
CF00
CF00
CF00
CF00
CF00
CF00
CF00
CF00
CF00
CF00
CF00
CF00
CF00
CF00
CF00
FF00
FF00
3F00
3F00
ENDCHAR
STARTCHAR 00CE
ENCODING 206
SWIDTH 480 0
DWIDTH 8 0
BBX 12 27 -2 0
BITMAP
0F00
0F00
33C0
33C0
CCF0
CCF0
FFF0
FFF0
33C0
33C0
33C0
33C0
33C0
33C0
33C0
33C0
33C0
33C0
33C0
33C0
33C0
33C0
33C0
3FC0
3FC0
0FC0
0FC0
ENDCHAR
STARTCHAR 00CF
ENCODING 207
SWIDTH 480 0
DWIDTH 8 0
BBX 12 25 -2 0
BITMAP
3FC0
3FC0
CCF0
CCF0
FFF0
FFF0
33C0
33C0
33C0
33C0
33C0
33C0
33C0
33C0
33C0
33C0
33C0
33C0
33C0
33C0
33C0
3FC0
3FC0
0FC0
0FC0
ENDCHAR
STARTCHAR 00D1
ENCODING 209
SWIDTH 1020 0
DWIDTH 17 0
BBX 17 27 0 0
BITMAP
03FE00
03FE00
0CCF80
0CCF80
333F80
333F80
3FFE00
3FFE00
CFCF80
CFCF80
C3CF80
C3CF80
CCCF80
CCCF80
CF0F80
CF0F80
CF0F80
CFCF80
CFCF80
CFCF80
CFCF80
CFCF80
CFCF80
FFFF80
FFFF80
3F3F80
3F3F80
ENDCHAR
STARTCHAR 00D2
ENCODING 210
SWIDTH 1020 0
DWIDTH 17 0
BBX 17 27 0 0
BITMAP
0F0000
0F0000
33C000
33C000
3CF800
3CF800
0FF800
0FF800
303E00
303E00
CFCF80
CFCF80
CFCF80
CFCF80
CFCF80
CFCF80
CFCF80
CFCF80
CFCF80
CFCF80
CFCF80
F03F80
F03F80
3FFF80
3FFF80
0FFE00
0FFE00
ENDCHAR
STARTCHAR 00D3
ENCODING 211
SWIDTH 1020 0
DWIDTH 17 0
BBX 17 27 0 0
BITMAP
00F800
00F800
033E00
033E00
0CFE00
0CFE00
0FF800
0FF800
303E00
303E00
CFCF80
CFCF80
CFCF80
CFCF80
CFCF80
CFCF80
CFCF80
CFCF80
CFCF80
CFCF80
CFCF80
F03F80
F03F80
3FFF80
3FFF80
0FFE00
0FFE00
ENDCHAR
STARTCHAR 00D4
ENCODING 212
SWIDTH 1020 0
DWIDTH 17 0
BBX 17 27 0 0
BITMAP
03C000
03C000
0CF800
0CF800
333E00
333E00
3FFE00
3FFE00
303E00
303E00
CFCF80
CFCF80
CFCF80
CFCF80
CFCF80
CFCF80
CFCF80
CFCF80
CFCF80
CFCF80
CFCF80
F03F80
F03F80
3FFF80
3FFF80
0FFE00
0FFE00
ENDCHAR
STARTCHAR 00D5
ENCODING 213
SWIDTH 1020 0
DWIDTH 17 0
BBX 17 27 0 0
BITMAP
03FE00
03FE00
0CCF80
0CCF80
333F80
333F80
3FFE00
3FFE00
CFCF80
CFCF80
CFCF80
CFCF80
CFCF80
CFCF80
CFCF80
CFCF80
CFCF80
CFCF80
CFCF80
CFCF80
CFCF80
F03F80
F03F80
3FFF80
3FFF80
0FFE00
0FFE00
ENDCHAR
STARTCHAR 00D6
ENCODING 214
SWIDTH 1020 0
DWIDTH 17 0
BBX 17 25 0 0
BITMAP
0FF800
0FF800
333E00
333E00
3FFE00
3FFE00
303E00
303E00
CFCF80
CFCF80
CFCF80
CFCF80
CFCF80
CFCF80
CFCF80
CFCF80
CFCF80
CFCF80
CFCF80
F03F80
F03F80
3FFF80
3FFF80
0FFE00
0FFE00
ENDCHAR
STARTCHAR 00D7
ENCODING 215
SWIDTH 780 0
DWIDTH 13 0
BBX 13 13 0 4
BITMAP
3FC0
3FC0
CCF8
CCF8
F3F8
F3F8
CCF8
CCF8
CCF8
FFF8
FFF8
3FF8
3FF8
ENDCHAR
STARTCHAR 00D8
ENCODING 216
SWIDTH 1020 0
DWIDTH 17 0
BBX 17 21 0 0
BITMAP
0FF800
0FF800
303E00
303E00
CFCF80
CFCF80
CF0F80
CF0F80
CCCF80
CCCF80
CCCF80
C3CF80
C3CF80
CFCF80
CFCF80
F03F80
F03F80
3FFF80
3FFF80
0FFE00
0FFE00
ENDCHAR
STARTCHAR 00D9
ENCODING 217
SWIDTH 1020 0
DWIDTH 17 0
BBX 17 27 0 0
BITMAP
0F0000
0F0000
33C000
33C000
3CF800
3CF800
3FFE00
3FFE00
CFCF80
CFCF80
CFCF80
CFCF80
CFCF80
CFCF80
CFCF80
CFCF80
CFCF80
CFCF80
CFCF80
CFCF80
CFCF80
F03F80
F03F80
3FFF80
3FFF80
0FFE00
0FFE00
ENDCHAR
STARTCHAR 00DA
ENCODING 218
SWIDTH 1020 0
DWIDTH 17 0
BBX 17 27 0 0
BITMAP
00F800
00F800
033E00
033E00
0CFE00
0CFE00
3FFE00
3FFE00
CFCF80
CFCF80
CFCF80
CFCF80
CFCF80
CFCF80
CFCF80
CFCF80
CFCF80
CFCF80
CFCF80
CFCF80
CFCF80
F03F80
F03F80
3FFF80
3FFF80
0FFE00
0FFE00
ENDCHAR
STARTCHAR 00DB
ENCODING 219
SWIDTH 1020 0
DWIDTH 17 0
BBX 17 27 0 0
BITMAP
03C000
03C000
0CF800
0CF800
333E00
333E00
3FFE00
3FFE00
CFCF80
CFCF80
CFCF80
CFCF80
CFCF80
CFCF80
CFCF80
CFCF80
CFCF80
CFCF80
CFCF80
CFCF80
CFCF80
F03F80
F03F80
3FFF80
3FFF80
0FFE00
0FFE00
ENDCHAR
STARTCHAR 00DC
ENCODING 220
SWIDTH 1020 0
DWIDTH 17 0
BBX 17 25 0 0
BITMAP
0FF800
0FF800
333E00
333E00
3FFE00
3FFE00
CFCF80
CFCF80
CFCF80
CFCF80
CFCF80
CFCF80
CFCF80
CFCF80
CFCF80
CFCF80
CFCF80
CFCF80
CFCF80
F03F80
F03F80
3FFF80
3FFF80
0FFE00
0FFE00
ENDCHAR
STARTCHAR 00DD
ENCODING 221
SWIDTH 1260 0
DWIDTH 21 0
BBX 21 25 0 0
BITMAP
003E00
003E00
00CF80
00CF80
3F3FE0
3F3FE0
CFFE78
CFFE78
CFFE78
CFFE78
F3F9F8
F3F9F8
3C0FE0
3C0FE0
3C0FE0
0F3F80
0F3F80
033E00
033E00
033E00
033E00
03FE00
03FE00
00FE00
00FE00
ENDCHAR
STARTCHAR 00DF
ENCODING 223
SWIDTH 1020 0
DWIDTH 17 0
BBX 17 28 0 -7
BITMAP
0FF800
0FF800
303E00
303E00
CFCF80
CFCF80
CFCF80
CFCF80
CC3E00
CC3E00
CFCF80
CFCF80
CFCF80
CFCF80
CF3F80
CF3F80
CF3F80
CFFE00
CFFE00
CFF800
CFF800
CF0000
CF0000
CF0000
FF0000
FF0000
3F0000
3F0000
ENDCHAR
STARTCHAR 00E0
ENCODING 224
SWIDTH 1020 0
DWIDTH 17 0
BBX 17 23 0 0
BITMAP
0F0000
0F0000
33C000
33C000
3CF800
3CF800
0FFE00
0FFE00
303F80
303F80
0FCF80
0FCF80
300F80
300F80
F00F80
CFCF80
CFCF80
F00F80
F00F80
3FFF80
3FFF80
0FFF80
0FFF80
ENDCHAR
STARTCHAR 00E1
ENCODING 225
SWIDTH 1020 0
DWIDTH 17 0
BBX 17 23 0 0
BITMAP
00F800
00F800
033E00
033E00
0CFE00
0CFE00
0FFE00
0FFE00
303F80
303F80
0FCF80
0FCF80
300F80
300F80
300F80
CFCF80
CFCF80
F00F80
F00F80
3FFF80
3FFF80
0FFF80
0FFF80
ENDCHAR
STARTCHAR 00E2
ENCODING 226
SWIDTH 1020 0
DWIDTH 17 0
BBX 17 23 0 0
BITMAP
03C000
03C000
0CF800
0CF800
333E00
333E00
3FFE00
3FFE00
303F80
303F80
0FCF80
0FCF80
300F80
300F80
300F80
CFCF80
CFCF80
F00F80
F00F80
3FFF80
3FFF80
0FFF80
0FFF80
ENDCHAR
STARTCHAR 00E3
ENCODING 227
SWIDTH 1020 0
DWIDTH 17 0
BBX 17 23 0 0
BITMAP
03FE00
03FE00
0CCF80
0CCF80
333F80
333F80
3FFE00
3FFE00
303F80
303F80
0FCF80
0FCF80
300F80
300F80
300F80
CFCF80
CFCF80
F00F80
F00F80
3FFF80
3FFF80
0FFF80
0FFF80
ENDCHAR
STARTCHAR 00E4
ENCODING 228
SWIDTH 1020 0
DWIDTH 17 0
BBX 17 21 0 0
BITMAP
0FF800
0FF800
333E00
333E00
3FFE00
3FFE00
303F80
303F80
0FCF80
0FCF80
300F80
300F80
300F80
CFCF80
CFCF80
F00F80
F00F80
3FFF80
3FFF80
0FFF80
0FFF80
ENDCHAR
STARTCHAR 00E5
ENCODING 229
SWIDTH 1020 0
DWIDTH 17 0
BBX 17 25 0 0
BITMAP
03C000
03C000
0CF800
0CF800
333E00
333E00
3CFE00
3CFE00
0FFE00
0FFE00
303F80
303F80
0FCF80
0FCF80
300F80
300F80
300F80
CFCF80
CFCF80
F00F80
F00F80
3FFF80
3FFF80
0FFF80
0FFF80
ENDCHAR
STARTCHAR 00E6
ENCODING 230
SWIDTH 1500 0
DWIDTH 25 0
BBX 25 17 0 0
BITMAP
0FFFF800
0FFFF800
30381E00
30381E00
0FCFE780
0FCFE780
30000780
30000780
F0000780
CFCFFF80
CFCFFF80
F0380780
F0380780
3FFFFF80
3FFFFF80
0FFFFF80
0FFFFF80
ENDCHAR
STARTCHAR 00E7
ENCODING 231
SWIDTH 900 0
DWIDTH 15 0
BBX 15 21 0 -4
BITMAP
0FF8
0FF8
303E
303E
CFFE
CFFE
CFC0
CFC0
CFC0
CFF8
CFF8
F03E
F03E
3CFE
3CFE
33FE
33FE
3FC0
3FC0
0F00
0F00
ENDCHAR
STARTCHAR 00E8
ENCODING 232
SWIDTH 1020 0
DWIDTH 17 0
BBX 17 23 0 0
BITMAP
0F0000
0F0000
33C000
33C000
3CF800
3CF800
0FF800
0FF800
303E00
303E00
CFCF80
CFCF80
C00F80
C00F80
C00F80
CFFF80
CFFF80
F00F80
F00F80
3FFF80
3FFF80
0FFF80
0FFF80
ENDCHAR
STARTCHAR 00E9
ENCODING 233
SWIDTH 1020 0
DWIDTH 17 0
BBX 17 23 0 0
BITMAP
00F800
00F800
033E00
033E00
0CFE00
0CFE00
0FF800
0FF800
303E00
303E00
CFCF80
CFCF80
C00F80
C00F80
C00F80
CFFF80
CFFF80
F00F80
F00F80
3FFF80
3FFF80
0FFF80
0FFF80
ENDCHAR
STARTCHAR 00EA
ENCODING 234
SWIDTH 1020 0
DWIDTH 17 0
BBX 17 23 0 0
BITMAP
03C000
03C000
0CF800
0CF800
333E00
333E00
3FFE00
3FFE00
303E00
303E00
CFCF80
CFCF80
C00F80
C00F80
C00F80
CFFF80
CFFF80
F00F80
F00F80
3FFF80
3FFF80
0FFF80
0FFF80
ENDCHAR
STARTCHAR 00EB
ENCODING 235
SWIDTH 1020 0
DWIDTH 17 0
BBX 17 21 0 0
BITMAP
0FF800
0FF800
333E00
333E00
3FFE00
3FFE00
303E00
303E00
CFCF80
CFCF80
C00F80
C00F80
C00F80
CFFF80
CFFF80
F00F80
F00F80
3FFF80
3FFF80
0FFF80
0FFF80
ENDCHAR
STARTCHAR 00EC
ENCODING 236
SWIDTH 480 0
DWIDTH 8 0
BBX 10 23 -2 0
BITMAP
3C00
3C00
CF00
CF00
F3C0
F3C0
3FC0
3FC0
33C0
33C0
33C0
33C0
33C0
33C0
33C0
33C0
33C0
33C0
33C0
3FC0
3FC0
0FC0
0FC0
ENDCHAR
STARTCHAR 00ED
ENCODING 237
SWIDTH 480 0
DWIDTH 8 0
BBX 10 23 0 0
BITMAP
0F00
0F00
33C0
33C0
CFC0
CFC0
FF00
FF00
CF00
CF00
CF00
CF00
CF00
CF00
CF00
CF00
CF00
CF00
CF00
FF00
FF00
3F00
3F00
ENDCHAR
STARTCHAR 00EE
ENCODING 238
SWIDTH 480 0
DWIDTH 8 0
BBX 12 23 -2 0
BITMAP
0F00
0F00
33C0
33C0
CCF0
CCF0
FFF0
FFF0
33C0
33C0
33C0
33C0
33C0
33C0
33C0
33C0
33C0
33C0
33C0
3FC0
3FC0
0FC0
0FC0
ENDCHAR
STARTCHAR 00EF
ENCODING 239
SWIDTH 480 0
DWIDTH 8 0
BBX 12 21 -2 0
BITMAP
3FC0
3FC0
CCF0
CCF0
FFF0
FFF0
33C0
33C0
33C0
33C0
33C0
33C0
33C0
33C0
33C0
33C0
33C0
3FC0
3FC0
0FC0
0FC0
ENDCHAR
STARTCHAR 00F1
ENCODING 241
SWIDTH 1020 0
DWIDTH 17 0
BBX 17 23 0 0
BITMAP
03FE00
03FE00
0CCF80
0CCF80
333F80
333F80
3FFE00
3FFE00
C03E00
C03E00
CFCF80
CFCF80
CFCF80
CFCF80
CFCF80
CFCF80
CFCF80
CFCF80
CFCF80
FFFF80
FFFF80
3C3E00
3C3E00
ENDCHAR
STARTCHAR 00F2
ENCODING 242
SWIDTH 1020 0
DWIDTH 17 0
BBX 17 23 0 0
BITMAP
0F0000
0F0000
33C000
33C000
3CF800
3CF800
0FF800
0FF800
303E00
303E00
CFCF80
CFCF80
CFCF80
CFCF80
CFCF80
CFCF80
CFCF80
F03F80
F03F80
3FFE00
3FFE00
0FF800
0FF800
ENDCHAR
STARTCHAR 00F3
ENCODING 243
SWIDTH 1020 0
DWIDTH 17 0
BBX 17 23 0 0
BITMAP
00F800
00F800
033E00
033E00
0CFE00
0CFE00
0FF800
0FF800
303E00
303E00
CFCF80
CFCF80
CFCF80
CFCF80
CFCF80
CFCF80
CFCF80
F03F80
F03F80
3FFE00
3FFE00
0FF800
0FF800
ENDCHAR
STARTCHAR 00F4
ENCODING 244
SWIDTH 1020 0
DWIDTH 17 0
BBX 17 23 0 0
BITMAP
03C000
03C000
0CF800
0CF800
333E00
333E00
3FFE00
3FFE00
303E00
303E00
CFCF80
CFCF80
CFCF80
CFCF80
CFCF80
CFCF80
CFCF80
F03F80
F03F80
3FFE00
3FFE00
0FF800
0FF800
ENDCHAR
STARTCHAR 00F5
ENCODING 245
SWIDTH 1020 0
DWIDTH 17 0
BBX 17 23 0 0
BITMAP
03FE00
03FE00
0CCF80
0CCF80
333F80
333F80
3FFE00
3FFE00
303E00
303E00
CFCF80
CFCF80
CFCF80
CFCF80
CFCF80
CFCF80
CFCF80
F03F80
F03F80
3FFE00
3FFE00
0FF800
0FF800
ENDCHAR
STARTCHAR 00F6
ENCODING 246
SWIDTH 1020 0
DWIDTH 17 0
BBX 17 21 0 0
BITMAP
0FF800
0FF800
333E00
333E00
3FFE00
3FFE00
303E00
303E00
CFCF80
CFCF80
CFCF80
CFCF80
CFCF80
CFCF80
CFCF80
F03F80
F03F80
3FFE00
3FFE00
0FF800
0FF800
ENDCHAR
STARTCHAR 00F7
ENCODING 247
SWIDTH 780 0
DWIDTH 13 0
BBX 13 17 0 2
BITMAP
0F00
0F00
33C0
33C0
3FC0
3FC0
C0F8
C0F8
FFF8
FFF8
33F8
33F8
33F8
3FC0
3FC0
0FC0
0FC0
ENDCHAR
STARTCHAR 00F8
ENCODING 248
SWIDTH 1020 0
DWIDTH 17 0
BBX 17 17 0 0
BITMAP
0FF800
0FF800
303E00
303E00
CF0F80
CF0F80
CCCF80
CCCF80
CCCF80
C3CF80
C3CF80
F03F80
F03F80
3FFE00
3FFE00
0FF800
0FF800
ENDCHAR
STARTCHAR 00F9
ENCODING 249
SWIDTH 1020 0
DWIDTH 17 0
BBX 17 23 0 0
BITMAP
0F0000
0F0000
33C000
33C000
3CF800
3CF800
3FFE00
3FFE00
CFCF80
CFCF80
CFCF80
CFCF80
CFCF80
CFCF80
CFCF80
CFCF80
CFCF80
F03F80
F03F80
3FFF80
3FFF80
0FFE00
0FFE00
ENDCHAR
STARTCHAR 00FA
ENCODING 250
SWIDTH 1020 0
DWIDTH 17 0
BBX 17 23 0 0
BITMAP
00F800
00F800
033E00
033E00
0CFE00
0CFE00
3FFE00
3FFE00
CFCF80
CFCF80
CFCF80
CFCF80
CFCF80
CFCF80
CFCF80
CFCF80
CFCF80
F03F80
F03F80
3FFF80
3FFF80
0FFE00
0FFE00
ENDCHAR
STARTCHAR 00FB
ENCODING 251
SWIDTH 1020 0
DWIDTH 17 0
BBX 17 23 0 0
BITMAP
03C000
03C000
0CF800
0CF800
333E00
333E00
3FFE00
3FFE00
CFCF80
CFCF80
CFCF80
CFCF80
CFCF80
CFCF80
CFCF80
CFCF80
CFCF80
F03F80
F03F80
3FFF80
3FFF80
0FFE00
0FFE00
ENDCHAR
STARTCHAR 00FC
ENCODING 252
SWIDTH 1020 0
DWIDTH 17 0
BBX 17 21 0 0
BITMAP
0FF800
0FF800
333E00
333E00
3FFE00
3FFE00
CFCF80
CFCF80
CFCF80
CFCF80
CFCF80
CFCF80
CFCF80
CFCF80
CFCF80
F03F80
F03F80
3FFF80
3FFF80
0FFE00
0FFE00
ENDCHAR
STARTCHAR 00FD
ENCODING 253
SWIDTH 1020 0
DWIDTH 17 0
BBX 17 30 0 -7
BITMAP
00F800
00F800
033E00
033E00
0CFE00
0CFE00
3FFE00
3FFE00
CFCF80
CFCF80
CFCF80
CFCF80
CFCF80
CFCF80
CFCF80
CFCF80
CFCF80
F00F80
F00F80
3FCF80
3FCF80
0FCF80
0FCF80
303F80
303F80
303F80
3FFE00
3FFE00
0FF800
0FF800
ENDCHAR
STARTCHAR 00FF
ENCODING 255
SWIDTH 1020 0
DWIDTH 17 0
BBX 17 28 0 -7
BITMAP
0FF800
0FF800
333E00
333E00
3FFE00
3FFE00
CFCF80
CFCF80
CFCF80
CFCF80
CFCF80
CFCF80
CFCF80
CFCF80
CFCF80
F00F80
F00F80
3FCF80
3FCF80
0FCF80
0FCF80
303F80
303F80
303F80
3FFE00
3FFE00
0FF800
0FF800
ENDCHAR
STARTCHAR 0131
ENCODING 305
SWIDTH 480 0
DWIDTH 8 0
BBX 8 17 0 0
BITMAP
FC
FC
CF
CF
CF
CF
CF
CF
CF
CF
CF
CF
CF
FF
FF
3F
3F
ENDCHAR
STARTCHAR 0152
ENCODING 338
SWIDTH 1380 0
DWIDTH 23 0
BBX 23 21 0 0
BITMAP
0FFFE0
0FFFE0
303818
303818
CFCFFE
CFCFFE
CFCFFE
CFCFFE
CFC01E
CFC01E
CFCFFE
CFCFFE
CFCFFE
CFCFFE
CFCFFE
F0381E
F0381E
3FFFFE
3FFFFE
0FFFFE
0FFFFE
ENDCHAR
STARTCHAR 0153
ENCODING 339
SWIDTH 1500 0
DWIDTH 25 0
BBX 25 17 0 0
BITMAP
0FFFF800
0FFFF800
30381E00
30381E00
CFCFE780
CFCFE780
CFC00780
CFC00780
CFC00780
CFCFFF80
CFCFFF80
F0380780
F0380780
3FFFFF80
3FFFFF80
0FFFFF80
0FFFFF80
ENDCHAR
STARTCHAR 0160
ENCODING 352
SWIDTH 1020 0
DWIDTH 17 0
BBX 17 27 0 0
BITMAP
0FF800
0FF800
333E00
333E00
3CFE00
3CFE00
0FFE00
0FFE00
300F80
300F80
CFFF80
CFFF80
CFFF80
CFFF80
F03E00
F03E00
FFCF80
FFCF80
3FCF80
3FCF80
3FCF80
C03F80
C03F80
FFFF80
FFFF80
3FFE00
3FFE00
ENDCHAR
STARTCHAR 0161
ENCODING 353
SWIDTH 1020 0
DWIDTH 17 0
BBX 17 23 0 0
BITMAP
0FF800
0FF800
333E00
333E00
3CFE00
3CFE00
0FFE00
0FFE00
300F80
300F80
CFFF80
CFFF80
F03E00
F03E00
F03E00
3FCF80
3FCF80
C03F80
C03F80
FFFE00
FFFE00
3FF800
3FF800
ENDCHAR
STARTCHAR 0178
ENCODING 376
SWIDTH 1260 0
DWIDTH 21 0
BBX 21 25 0 0
BITMAP
03FE00
03FE00
0CCF80
0CCF80
3FFFE0
3FFFE0
CFFE78
CFFE78
CFFE78
CFFE78
F3F9F8
F3F9F8
3C0FE0
3C0FE0
0F3FE0
0F3F80
0F3F80
033E00
033E00
033E00
033E00
03FE00
03FE00
00FE00
00FE00
ENDCHAR
STARTCHAR 02C6
ENCODING 710
SWIDTH 780 0
DWIDTH 13 0
BBX 13 10 0 11
BITMAP
0F00
0F00
33C0
33C0
CCF8
CCF8
FFF8
FFF8
3FF8
3FF8
ENDCHAR
STARTCHAR 02C7
ENCODING 711
SWIDTH 780 0
DWIDTH 13 0
BBX 13 10 0 11
BITMAP
3FC0
3FC0
CCF8
CCF8
F3F8
F3F8
3FC0
3FC0
0F00
0F00
ENDCHAR
STARTCHAR 02D8
ENCODING 728
SWIDTH 900 0
DWIDTH 15 0
BBX 15 10 0 11
BITMAP
3FF8
3FF8
CF3E
CF3E
F0FE
F0FE
3FF8
3FF8
0FC0
0FC0
ENDCHAR
STARTCHAR 02D9
ENCODING 729
SWIDTH 480 0
DWIDTH 8 0
BBX 8 8 0 13
BITMAP
3C
3C
CF
CF
FF
FF
3F
3F
ENDCHAR
STARTCHAR 02DA
ENCODING 730
SWIDTH 780 0
DWIDTH 13 0
BBX 13 12 0 9
BITMAP
0F00
0F00
33C0
33C0
CCF8
CCF8
F3F8
F3F8
3FC0
3FC0
0F00
0F00
ENDCHAR
STARTCHAR 02DB
ENCODING 731
SWIDTH 1020 0
DWIDTH 17 0
BBX 13 10 0 -4
BITMAP
3C00
3C00
CFC0
CFC0
F0F8
F0F8
3FF8
3FF8
0FF8
0FF8
ENDCHAR
STARTCHAR 02DC
ENCODING 732
SWIDTH 900 0
DWIDTH 15 0
BBX 15 10 0 11
BITMAP
0FF8
0FF8
333E
333E
CCFE
CCFE
FFF8
FFF8
3FF8
3FF8
ENDCHAR
STARTCHAR 02DD
ENCODING 733
SWIDTH 780 0
DWIDTH 13 0
BBX 15 8 0 13
BITMAP
0FF8
0FF8
333E
333E
CCFE
CCFE
FFF8
FFF8
ENDCHAR
STARTCHAR 03C0
ENCODING 960
SWIDTH 1140 0
DWIDTH 19 0
BBX 19 17 0 0
BITMAP
3FFF80
3FFF80
C001E0
C001E0
F3CFE0
F3CFE0
33CFE0
33CFE0
33CF80
33CF80
33CF80
33CF80
33CF80
3FFF80
3FFF80
0FFF80
0FFF80
ENDCHAR
STARTCHAR 2013
ENCODING 8211
SWIDTH 600 0
DWIDTH 10 0
BBX 10 9 0 6
BITMAP
3F00
3F00
C3C0
C3C0
C3C0
FFC0
FFC0
3FC0
3FC0
ENDCHAR
STARTCHAR 2014
ENCODING 8212
SWIDTH 1020 0
DWIDTH 17 0
BBX 17 9 0 6
BITMAP
3FFE00
3FFE00
C00F80
C00F80
C00F80
FFFF80
FFFF80
3FFF80
3FFF80
ENDCHAR
STARTCHAR 2018
ENCODING 8216
SWIDTH 480 0
DWIDTH 8 0
BBX 8 10 0 11
BITMAP
3C
3C
CF
CF
CF
CF
FF
FF
3F
3F
ENDCHAR
STARTCHAR 2019
ENCODING 8217
SWIDTH 480 0
DWIDTH 8 0
BBX 8 10 0 11
BITMAP
3C
3C
CF
CF
CF
CF
FF
FF
3F
3F
ENDCHAR
STARTCHAR 201A
ENCODING 8218
SWIDTH 480 0
DWIDTH 8 0
BBX 8 10 0 -4
BITMAP
3C
3C
CF
CF
CF
CF
FF
FF
3F
3F
ENDCHAR
STARTCHAR 201C
ENCODING 8220
SWIDTH 780 0
DWIDTH 13 0
BBX 13 10 0 11
BITMAP
3FC0
3FC0
CCF8
CCF8
CCF8
CCF8
FFF8
FFF8
3FF8
3FF8
ENDCHAR
STARTCHAR 201D
ENCODING 8221
SWIDTH 780 0
DWIDTH 13 0
BBX 13 10 0 11
BITMAP
3FC0
3FC0
CCF8
CCF8
CCF8
CCF8
FFF8
FFF8
3FF8
3FF8
ENDCHAR
STARTCHAR 201E
ENCODING 8222
SWIDTH 780 0
DWIDTH 13 0
BBX 13 10 0 -4
BITMAP
3FC0
3FC0
CCF8
CCF8
CCF8
CCF8
FFF8
FFF8
3FF8
3FF8
ENDCHAR
STARTCHAR 2022
ENCODING 8226
SWIDTH 600 0
DWIDTH 10 0
BBX 10 10 0 7
BITMAP
3F00
3F00
C3C0
C3C0
C3C0
C3C0
FFC0
FFC0
3F00
3F00
ENDCHAR
STARTCHAR 2026
ENCODING 8230
SWIDTH 1020 0
DWIDTH 17 0
BBX 17 8 0 0
BITMAP
3FFE00
3FFE00
CCCF80
CCCF80
FFFF80
FFFF80
3FFF80
3FFF80
ENDCHAR
STARTCHAR 2039
ENCODING 8249
SWIDTH 600 0
DWIDTH 10 0
BBX 10 13 0 2
BITMAP
0F00
0F00
33C0
33C0
33C0
CFC0
CFC0
F3C0
F3C0
3FC0
3FC0
0FC0
0FC0
ENDCHAR
STARTCHAR 203A
ENCODING 8250
SWIDTH 600 0
DWIDTH 10 0
BBX 10 13 0 2
BITMAP
3C00
3C00
CF00
CF00
CF00
F3C0
F3C0
CFC0
CFC0
FF00
FF00
3C00
3C00
ENDCHAR
STARTCHAR 2044
ENCODING 8260
SWIDTH 900 0
DWIDTH 15 0
BBX 15 23 0 0
BITMAP
00F8
00F8
033E
033E
033E
033E
0CFE
0CFE
0CF8
0CF8
33F8
33F8
33C0
33C0
33C0
CFC0
CFC0
CF00
CF00
FF00
FF00
3C00
3C00
ENDCHAR
STARTCHAR 2122
ENCODING 8482
SWIDTH 1380 0
DWIDTH 23 0
BBX 23 14 0 7
BITMAP
3FF878
3FF878
C03F9E
C03F9E
F30E1E
F30E1E
33399E
33399E
333F9E
333F9E
3FFFFE
3FFFFE
0FFE7E
0FFE7E
ENDCHAR
STARTCHAR 220F
ENCODING 8719
SWIDTH 1140 0
DWIDTH 19 0
BBX 19 21 0 0
BITMAP
3FFF80
3FFF80
C001E0
C001E0
F3CFE0
F3CFE0
33CFE0
33CFE0
33CF80
33CF80
33CF80
33CF80
33CF80
33CF80
33CF80
33CF80
33CF80
3FFF80
3FFF80
0FFF80
0FFF80
ENDCHAR
STARTCHAR 2212
ENCODING 8722
SWIDTH 780 0
DWIDTH 13 0
BBX 13 9 0 6
BITMAP
3FC0
3FC0
C0F8
C0F8
C0F8
FFF8
FFF8
3FF8
3FF8
ENDCHAR
STARTCHAR 2260
ENCODING 8800
SWIDTH 780 0
DWIDTH 13 0
BBX 13 17 0 2
BITMAP
0F00
0F00
33C0
33C0
C0F8
C0F8
F3F8
F3F8
C0F8
C0F8
C0F8
F3F8
F3F8
3FF8
3FF8
0F00
0F00
ENDCHAR
STARTCHAR 2264
ENCODING 8804
SWIDTH 600 0
DWIDTH 10 0
BBX 10 15 0 0
BITMAP
0F00
0F00
33C0
33C0
33C0
CFC0
CFC0
F3C0
F3C0
C3C0
C3C0
FFC0
FFC0
3FC0
3FC0
ENDCHAR
STARTCHAR 2265
ENCODING 8805
SWIDTH 600 0
DWIDTH 10 0
BBX 10 15 0 0
BITMAP
3C00
3C00
CF00
CF00
CF00
F3C0
F3C0
CFC0
CFC0
C3C0
C3C0
FFC0
FFC0
3FC0
3FC0
ENDCHAR
STARTCHAR FB01
ENCODING 64257
SWIDTH 1020 0
DWIDTH 17 0
BBX 17 21 0 0
BITMAP
03FE00
03FE00
0CCF80
0CCF80
33FF80
33FF80
C00F80
C00F80
F3CF80
F3CF80
33CF80
33CF80
33CF80
33CF80
33CF80
33CF80
33CF80
3FFF80
3FFF80
0FFF80
0FFF80
ENDCHAR
STARTCHAR FB02
ENCODING 64258
SWIDTH 1020 0
DWIDTH 17 0
BBX 17 21 0 0
BITMAP
03FE00
03FE00
0C0F80
0C0F80
33CF80
33CF80
C0CF80
C0CF80
F3CF80
F3CF80
33CF80
33CF80
33CF80
33CF80
33CF80
33CF80
33CF80
3FFF80
3FFF80
0FFF80
0FFF80
ENDCHAR
ENDFONT
